<mxfile host="65bd71144e">
    <diagram id="cH8GuDAc-BylLJYgWJ1K" name="Page-1">
        <mxGraphModel dx="1223" dy="728" grid="0" gridSize="10" guides="1" tooltips="1" connect="1" arrows="1" fold="1" page="0" pageScale="1" pageWidth="827" pageHeight="1169" background="none" math="0" shadow="0">
            <root>
                <mxCell id="0"/>
                <mxCell id="1" parent="0"/>
                <mxCell id="ySkBI7191X18KGP2Q0aH-1" value="Actor" style="shape=umlActor;verticalLabelPosition=bottom;verticalAlign=top;html=1;outlineConnect=0;" parent="1" vertex="1">
                    <mxGeometry x="104" y="65" width="30" height="60" as="geometry"/>
                </mxCell>
                <mxCell id="ySkBI7191X18KGP2Q0aH-3" value="main" style="rounded=0;whiteSpace=wrap;html=1;" parent="1" vertex="1">
                    <mxGeometry x="335" y="65" width="120" height="60" as="geometry"/>
                </mxCell>
                <mxCell id="ySkBI7191X18KGP2Q0aH-4" value="Plante" style="rounded=0;whiteSpace=wrap;html=1;" parent="1" vertex="1">
                    <mxGeometry x="651" y="65" width="120" height="60" as="geometry"/>
                </mxCell>
                <mxCell id="ySkBI7191X18KGP2Q0aH-5" value="animal" style="rounded=0;whiteSpace=wrap;html=1;" parent="1" vertex="1">
                    <mxGeometry x="919" y="65" width="120" height="60" as="geometry"/>
                </mxCell>
                <mxCell id="ySkBI7191X18KGP2Q0aH-6" value="living" style="rounded=0;whiteSpace=wrap;html=1;" parent="1" vertex="1">
                    <mxGeometry x="1220" y="65" width="120" height="60" as="geometry"/>
                </mxCell>
                <mxCell id="ySkBI7191X18KGP2Q0aH-7" value="" style="endArrow=none;dashed=1;html=1;dashPattern=1 3;strokeWidth=2;rounded=0;" parent="1" edge="1">
                    <mxGeometry width="50" height="50" relative="1" as="geometry">
                        <mxPoint x="120" y="2527" as="sourcePoint"/>
                        <mxPoint x="120" y="177" as="targetPoint"/>
                    </mxGeometry>
                </mxCell>
                <mxCell id="ySkBI7191X18KGP2Q0aH-8" value="" style="endArrow=none;dashed=1;html=1;dashPattern=1 3;strokeWidth=2;rounded=0;startArrow=none;" parent="1" edge="1" source="3">
                    <mxGeometry width="50" height="50" relative="1" as="geometry">
                        <mxPoint x="401" y="2531" as="sourcePoint"/>
                        <mxPoint x="396" y="179" as="targetPoint"/>
                    </mxGeometry>
                </mxCell>
                <mxCell id="ySkBI7191X18KGP2Q0aH-9" value="" style="endArrow=none;dashed=1;html=1;dashPattern=1 3;strokeWidth=2;rounded=0;" parent="1" edge="1">
                    <mxGeometry width="50" height="50" relative="1" as="geometry">
                        <mxPoint x="708" y="2527" as="sourcePoint"/>
                        <mxPoint x="708" y="173" as="targetPoint"/>
                    </mxGeometry>
                </mxCell>
                <mxCell id="ySkBI7191X18KGP2Q0aH-10" value="" style="endArrow=none;dashed=1;html=1;dashPattern=1 3;strokeWidth=2;rounded=0;" parent="1" edge="1">
                    <mxGeometry width="50" height="50" relative="1" as="geometry">
                        <mxPoint x="978" y="2527" as="sourcePoint"/>
                        <mxPoint x="978.29" y="172" as="targetPoint"/>
                    </mxGeometry>
                </mxCell>
                <mxCell id="ySkBI7191X18KGP2Q0aH-11" value="" style="endArrow=none;dashed=1;html=1;dashPattern=1 3;strokeWidth=2;rounded=0;startArrow=none;" parent="1" edge="1" source="17">
                    <mxGeometry width="50" height="50" relative="1" as="geometry">
                        <mxPoint x="1279" y="2528" as="sourcePoint"/>
                        <mxPoint x="1279.29" y="176" as="targetPoint"/>
                    </mxGeometry>
                </mxCell>
                <mxCell id="ySkBI7191X18KGP2Q0aH-12" value="" style="endArrow=classic;html=1;rounded=0;" parent="1" edge="1">
                    <mxGeometry width="50" height="50" relative="1" as="geometry">
                        <mxPoint x="118" y="217" as="sourcePoint"/>
                        <mxPoint x="387" y="217" as="targetPoint"/>
                    </mxGeometry>
                </mxCell>
                <mxCell id="ySkBI7191X18KGP2Q0aH-13" value="run 'main.py'" style="text;html=1;align=center;verticalAlign=middle;resizable=0;points=[];autosize=1;strokeColor=none;fillColor=none;" parent="1" vertex="1">
                    <mxGeometry x="199" y="197" width="77" height="18" as="geometry"/>
                </mxCell>
                <mxCell id="ySkBI7191X18KGP2Q0aH-14" value="" style="endArrow=classic;html=1;rounded=0;" parent="1" edge="1">
                    <mxGeometry width="50" height="50" relative="1" as="geometry">
                        <mxPoint x="409" y="239" as="sourcePoint"/>
                        <mxPoint x="704" y="239" as="targetPoint"/>
                    </mxGeometry>
                </mxCell>
                <mxCell id="ySkBI7191X18KGP2Q0aH-15" value="draw sprite plant" style="text;html=1;align=center;verticalAlign=middle;resizable=0;points=[];autosize=1;strokeColor=none;fillColor=none;" parent="1" vertex="1">
                    <mxGeometry x="474" y="221" width="98" height="18" as="geometry"/>
                </mxCell>
                <mxCell id="ySkBI7191X18KGP2Q0aH-16" value="" style="endArrow=classic;html=1;rounded=0;exitX=0.042;exitY=-0.038;exitDx=0;exitDy=0;exitPerimeter=0;entryX=-0.042;entryY=0.089;entryDx=0;entryDy=0;entryPerimeter=0;" parent="1" edge="1" target="19" source="3">
                    <mxGeometry width="50" height="50" relative="1" as="geometry">
                        <mxPoint x="396" y="315" as="sourcePoint"/>
                        <mxPoint x="1271" y="315" as="targetPoint"/>
                    </mxGeometry>
                </mxCell>
                <mxCell id="ySkBI7191X18KGP2Q0aH-17" value="update plant energy" style="text;html=1;align=center;verticalAlign=middle;resizable=0;points=[];autosize=1;strokeColor=none;fillColor=none;" parent="1" vertex="1">
                    <mxGeometry x="465.5" y="295" width="116" height="18" as="geometry"/>
                </mxCell>
                <mxCell id="ySkBI7191X18KGP2Q0aH-20" value="loop" style="shape=umlFrame;whiteSpace=wrap;html=1;" parent="1" vertex="1">
                    <mxGeometry x="303" y="164" width="1041" height="545" as="geometry"/>
                </mxCell>
                <mxCell id="ySkBI7191X18KGP2Q0aH-24" value="" style="endArrow=classic;html=1;rounded=0;entryX=0.107;entryY=-0.003;entryDx=0;entryDy=0;entryPerimeter=0;" parent="1" edge="1" target="3">
                    <mxGeometry width="50" height="50" relative="1" as="geometry">
                        <mxPoint x="413" y="419" as="sourcePoint"/>
                        <mxPoint x="395" y="467" as="targetPoint"/>
                        <Array as="points">
                            <mxPoint x="473" y="418.5"/>
                            <mxPoint x="473" y="466.5"/>
                        </Array>
                    </mxGeometry>
                </mxCell>
                <mxCell id="ySkBI7191X18KGP2Q0aH-25" value="add in tokill" style="text;html=1;align=center;verticalAlign=middle;resizable=0;points=[];autosize=1;strokeColor=none;fillColor=none;" parent="1" vertex="1">
                    <mxGeometry x="474" y="434" width="70" height="18" as="geometry"/>
                </mxCell>
                <mxCell id="ySkBI7191X18KGP2Q0aH-26" value="[plant health=0]" style="text;html=1;align=center;verticalAlign=middle;resizable=0;points=[];autosize=1;strokeColor=none;fillColor=none;" parent="1" vertex="1">
                    <mxGeometry x="424.5" y="381" width="93" height="18" as="geometry"/>
                </mxCell>
                <mxCell id="ySkBI7191X18KGP2Q0aH-27" value="alt" style="shape=umlFrame;whiteSpace=wrap;html=1;" parent="1" vertex="1">
                    <mxGeometry x="318" y="372" width="308" height="108" as="geometry"/>
                </mxCell>
                <mxCell id="ySkBI7191X18KGP2Q0aH-28" value="" style="endArrow=classic;html=1;rounded=0;" parent="1" edge="1">
                    <mxGeometry width="50" height="50" relative="1" as="geometry">
                        <mxPoint x="399" y="569" as="sourcePoint"/>
                        <mxPoint x="701" y="569" as="targetPoint"/>
                    </mxGeometry>
                </mxCell>
                <mxCell id="ySkBI7191X18KGP2Q0aH-29" value="eat waste" style="text;html=1;align=center;verticalAlign=middle;resizable=0;points=[];autosize=1;strokeColor=none;fillColor=none;" parent="1" vertex="1">
                    <mxGeometry x="501" y="549" width="61" height="18" as="geometry"/>
                </mxCell>
                <mxCell id="ySkBI7191X18KGP2Q0aH-30" value="" style="endArrow=classic;html=1;rounded=0;entryX=0;entryY=0;entryDx=0;entryDy=0;" parent="1" edge="1" target="15">
                    <mxGeometry width="50" height="50" relative="1" as="geometry">
                        <mxPoint x="397" y="645" as="sourcePoint"/>
                        <mxPoint x="698" y="645" as="targetPoint"/>
                    </mxGeometry>
                </mxCell>
                <mxCell id="ySkBI7191X18KGP2Q0aH-31" value="reproduce new plant" style="text;html=1;align=center;verticalAlign=middle;resizable=0;points=[];autosize=1;strokeColor=none;fillColor=none;" parent="1" vertex="1">
                    <mxGeometry x="482" y="623" width="119" height="18" as="geometry"/>
                </mxCell>
                <mxCell id="ySkBI7191X18KGP2Q0aH-34" value="" style="endArrow=classic;html=1;rounded=0;exitX=1;exitY=0;exitDx=0;exitDy=0;" parent="1" edge="1" source="15">
                    <mxGeometry width="50" height="50" relative="1" as="geometry">
                        <mxPoint x="706" y="645" as="sourcePoint"/>
                        <mxPoint x="1273" y="645" as="targetPoint"/>
                    </mxGeometry>
                </mxCell>
                <mxCell id="ySkBI7191X18KGP2Q0aH-35" value="add&amp;nbsp; to '&lt;span style=&quot;color: rgb(36 , 41 , 47) ; background-color: rgb(255 , 255 , 255)&quot;&gt;listeDesGraines&lt;/span&gt;&lt;span style=&quot;color: rgb(36 , 41 , 47) ; font-family: , , &amp;#34;sf mono&amp;#34; , &amp;#34;menlo&amp;#34; , &amp;#34;consolas&amp;#34; , &amp;#34;liberation mono&amp;#34; , monospace ; background-color: rgb(255 , 234 , 127)&quot;&gt;'&lt;/span&gt;" style="text;html=1;align=center;verticalAlign=middle;resizable=0;points=[];autosize=1;strokeColor=none;fillColor=none;" parent="1" vertex="1">
                    <mxGeometry x="815" y="621" width="140" height="18" as="geometry"/>
                </mxCell>
                <mxCell id="ySkBI7191X18KGP2Q0aH-37" value="" style="endArrow=classic;html=1;rounded=0;" parent="1" edge="1">
                    <mxGeometry width="50" height="50" relative="1" as="geometry">
                        <mxPoint x="702" y="568" as="sourcePoint"/>
                        <mxPoint x="1272" y="568" as="targetPoint"/>
                    </mxGeometry>
                </mxCell>
                <mxCell id="ySkBI7191X18KGP2Q0aH-38" value="update waste and plant energy" style="text;html=1;align=center;verticalAlign=middle;resizable=0;points=[];autosize=1;strokeColor=none;fillColor=none;" parent="1" vertex="1">
                    <mxGeometry x="803" y="549" width="174" height="18" as="geometry"/>
                </mxCell>
                <mxCell id="ySkBI7191X18KGP2Q0aH-39" value="alt" style="shape=umlFrame;whiteSpace=wrap;html=1;shadow=0;sketch=0;" parent="1" vertex="1">
                    <mxGeometry x="316" y="497" width="1000.75" height="110" as="geometry"/>
                </mxCell>
                <mxCell id="ySkBI7191X18KGP2Q0aH-41" value="&lt;font style=&quot;background-color: rgb(255 , 255 , 255)&quot; color=&quot;#121212&quot;&gt;[waste in zone racine]&lt;/font&gt;" style="text;html=1;strokeColor=none;fillColor=none;align=center;verticalAlign=middle;whiteSpace=wrap;rounded=0;labelBackgroundColor=#FFFFFF;" parent="1" vertex="1">
                    <mxGeometry x="438" y="503" width="165" height="33" as="geometry"/>
                </mxCell>
                <mxCell id="ySkBI7191X18KGP2Q0aH-42" value="" style="endArrow=classic;html=1;rounded=0;entryX=0;entryY=0;entryDx=0;entryDy=0;" parent="1" edge="1" target="21">
                    <mxGeometry width="50" height="50" relative="1" as="geometry">
                        <mxPoint x="389" y="776" as="sourcePoint"/>
                        <mxPoint x="1278" y="776" as="targetPoint"/>
                    </mxGeometry>
                </mxCell>
                <mxCell id="ySkBI7191X18KGP2Q0aH-43" value="delete dead plant" style="text;html=1;align=center;verticalAlign=middle;resizable=0;points=[];autosize=1;strokeColor=none;fillColor=none;" parent="1" vertex="1">
                    <mxGeometry x="491" y="757" width="102" height="18" as="geometry"/>
                </mxCell>
                <mxCell id="ySkBI7191X18KGP2Q0aH-44" value="loop" style="shape=umlFrame;whiteSpace=wrap;html=1;" parent="1" vertex="1">
                    <mxGeometry x="305" y="749" width="1325" height="90" as="geometry"/>
                </mxCell>
                <mxCell id="ySkBI7191X18KGP2Q0aH-45" value="objet" style="rounded=0;whiteSpace=wrap;html=1;" parent="1" vertex="1">
                    <mxGeometry x="1526" y="65" width="120" height="60" as="geometry"/>
                </mxCell>
                <mxCell id="ySkBI7191X18KGP2Q0aH-46" value="" style="endArrow=none;dashed=1;html=1;dashPattern=1 3;strokeWidth=2;rounded=0;startArrow=none;" parent="1" edge="1" source="23">
                    <mxGeometry width="50" height="50" relative="1" as="geometry">
                        <mxPoint x="1586" y="2528" as="sourcePoint"/>
                        <mxPoint x="1585.72" y="177" as="targetPoint"/>
                    </mxGeometry>
                </mxCell>
                <mxCell id="ySkBI7191X18KGP2Q0aH-47" value="" style="endArrow=classic;html=1;rounded=0;entryX=0;entryY=0;entryDx=0;entryDy=0;" parent="1" edge="1" target="23">
                    <mxGeometry width="50" height="50" relative="1" as="geometry">
                        <mxPoint x="1277" y="776" as="sourcePoint"/>
                        <mxPoint x="1566" y="776" as="targetPoint"/>
                    </mxGeometry>
                </mxCell>
                <mxCell id="ySkBI7191X18KGP2Q0aH-48" value="add new waste" style="text;html=1;align=center;verticalAlign=middle;resizable=0;points=[];autosize=1;strokeColor=none;fillColor=none;" parent="1" vertex="1">
                    <mxGeometry x="1389" y="761" width="90" height="18" as="geometry"/>
                </mxCell>
                <mxCell id="ySkBI7191X18KGP2Q0aH-49" value="" style="endArrow=classic;html=1;rounded=0;entryX=0;entryY=0;entryDx=0;entryDy=0;" parent="1" edge="1" target="27">
                    <mxGeometry width="50" height="50" relative="1" as="geometry">
                        <mxPoint x="396" y="1018" as="sourcePoint"/>
                        <mxPoint x="980" y="1018" as="targetPoint"/>
                    </mxGeometry>
                </mxCell>
                <mxCell id="ySkBI7191X18KGP2Q0aH-50" value="draw sprit animal" style="text;html=1;align=center;verticalAlign=middle;resizable=0;points=[];autosize=1;strokeColor=none;fillColor=none;" parent="1" vertex="1">
                    <mxGeometry x="485.5" y="997" width="101" height="18" as="geometry"/>
                </mxCell>
                <mxCell id="ySkBI7191X18KGP2Q0aH-51" value="" style="endArrow=classic;html=1;rounded=0;entryX=0;entryY=0;entryDx=0;entryDy=0;" parent="1" edge="1" target="28">
                    <mxGeometry width="50" height="50" relative="1" as="geometry">
                        <mxPoint x="397" y="1069" as="sourcePoint"/>
                        <mxPoint x="1278" y="1069" as="targetPoint"/>
                    </mxGeometry>
                </mxCell>
                <mxCell id="ySkBI7191X18KGP2Q0aH-52" value="update animal energy" style="text;html=1;align=center;verticalAlign=middle;resizable=0;points=[];autosize=1;strokeColor=none;fillColor=none;" parent="1" vertex="1">
                    <mxGeometry x="487" y="1048" width="125" height="18" as="geometry"/>
                </mxCell>
                <mxCell id="ySkBI7191X18KGP2Q0aH-54" value="" style="endArrow=classic;html=1;rounded=0;startArrow=none;entryX=0.422;entryY=-0.118;entryDx=0;entryDy=0;entryPerimeter=0;" parent="1" edge="1" target="3">
                    <mxGeometry width="50" height="50" relative="1" as="geometry">
                        <mxPoint x="397" y="1152" as="sourcePoint"/>
                        <mxPoint x="390" y="1200" as="targetPoint"/>
                        <Array as="points">
                            <mxPoint x="468" y="1151.5"/>
                            <mxPoint x="468" y="1199.5"/>
                        </Array>
                    </mxGeometry>
                </mxCell>
                <mxCell id="ySkBI7191X18KGP2Q0aH-55" value="add in tokill" style="text;html=1;align=center;verticalAlign=middle;resizable=0;points=[];autosize=1;strokeColor=none;fillColor=none;" parent="1" vertex="1">
                    <mxGeometry x="469" y="1167" width="70" height="18" as="geometry"/>
                </mxCell>
                <mxCell id="ySkBI7191X18KGP2Q0aH-56" value="[animal health=0]" style="text;html=1;align=center;verticalAlign=middle;resizable=0;points=[];autosize=1;strokeColor=none;fillColor=none;" parent="1" vertex="1">
                    <mxGeometry x="470" y="1097" width="102" height="18" as="geometry"/>
                </mxCell>
                <mxCell id="ySkBI7191X18KGP2Q0aH-58" value="" style="endArrow=classic;html=1;rounded=0;entryX=0;entryY=0;entryDx=0;entryDy=0;" parent="1" edge="1" target="30">
                    <mxGeometry width="50" height="50" relative="1" as="geometry">
                        <mxPoint x="394" y="1302" as="sourcePoint"/>
                        <mxPoint x="980" y="1302" as="targetPoint"/>
                    </mxGeometry>
                </mxCell>
                <mxCell id="ySkBI7191X18KGP2Q0aH-59" value="eat food" style="text;html=1;align=center;verticalAlign=middle;resizable=0;points=[];autosize=1;strokeColor=none;fillColor=none;" parent="1" vertex="1">
                    <mxGeometry x="500" y="1282" width="53" height="18" as="geometry"/>
                </mxCell>
                <mxCell id="ySkBI7191X18KGP2Q0aH-60" value="" style="endArrow=classic;html=1;rounded=0;entryX=0;entryY=0;entryDx=0;entryDy=0;" parent="1" edge="1" target="33">
                    <mxGeometry width="50" height="50" relative="1" as="geometry">
                        <mxPoint x="392" y="1451" as="sourcePoint"/>
                        <mxPoint x="977" y="1451" as="targetPoint"/>
                    </mxGeometry>
                </mxCell>
                <mxCell id="ySkBI7191X18KGP2Q0aH-61" value="reproduce new animal" style="text;html=1;align=center;verticalAlign=middle;resizable=0;points=[];autosize=1;strokeColor=none;fillColor=none;" parent="1" vertex="1">
                    <mxGeometry x="475.5" y="1432" width="128" height="18" as="geometry"/>
                </mxCell>
                <mxCell id="ySkBI7191X18KGP2Q0aH-62" value="" style="endArrow=classic;html=1;rounded=0;entryX=0;entryY=0;entryDx=0;entryDy=0;exitX=1;exitY=0;exitDx=0;exitDy=0;" parent="1" edge="1" target="34" source="33">
                    <mxGeometry width="50" height="50" relative="1" as="geometry">
                        <mxPoint x="976" y="1452" as="sourcePoint"/>
                        <mxPoint x="1279" y="1452" as="targetPoint"/>
                    </mxGeometry>
                </mxCell>
                <mxCell id="ySkBI7191X18KGP2Q0aH-63" value="&lt;font color=&quot;#ffffff&quot;&gt;add&amp;nbsp; to '&lt;span class=&quot;pl-s1&quot; style=&quot;box-sizing: border-box&quot;&gt;listeDesBebeCarnivores'&lt;/span&gt;&lt;/font&gt;" style="text;html=1;align=center;verticalAlign=middle;resizable=0;points=[];autosize=1;strokeColor=none;fillColor=none;" parent="1" vertex="1">
                    <mxGeometry x="1074" y="1432" width="183" height="18" as="geometry"/>
                </mxCell>
                <mxCell id="ySkBI7191X18KGP2Q0aH-64" value="" style="endArrow=classic;html=1;rounded=0;entryX=0;entryY=0;entryDx=0;entryDy=0;exitX=1;exitY=0;exitDx=0;exitDy=0;" parent="1" edge="1" target="31" source="30">
                    <mxGeometry width="50" height="50" relative="1" as="geometry">
                        <mxPoint x="979" y="1301" as="sourcePoint"/>
                        <mxPoint x="1267" y="1301" as="targetPoint"/>
                    </mxGeometry>
                </mxCell>
                <mxCell id="ySkBI7191X18KGP2Q0aH-65" value="update food and self energy" style="text;html=1;align=center;verticalAlign=middle;resizable=0;points=[];autosize=1;strokeColor=none;fillColor=none;" parent="1" vertex="1">
                    <mxGeometry x="1032" y="1282" width="159" height="18" as="geometry"/>
                </mxCell>
                <mxCell id="ySkBI7191X18KGP2Q0aH-66" value="alt" style="shape=umlFrame;whiteSpace=wrap;html=1;" parent="1" vertex="1">
                    <mxGeometry x="313" y="1240" width="1023" height="114" as="geometry"/>
                </mxCell>
                <mxCell id="ySkBI7191X18KGP2Q0aH-67" value="[food in zone contact]" style="text;html=1;strokeColor=none;fillColor=none;align=center;verticalAlign=middle;whiteSpace=wrap;rounded=0;labelBackgroundColor=#FFFFFF;" parent="1" vertex="1">
                    <mxGeometry x="433" y="1236" width="165" height="33" as="geometry"/>
                </mxCell>
                <mxCell id="ySkBI7191X18KGP2Q0aH-68" value="" style="endArrow=classic;html=1;rounded=0;entryX=0;entryY=0;entryDx=0;entryDy=0;" parent="1" edge="1" target="37">
                    <mxGeometry width="50" height="50" relative="1" as="geometry">
                        <mxPoint x="394" y="1597" as="sourcePoint"/>
                        <mxPoint x="1283" y="1597" as="targetPoint"/>
                    </mxGeometry>
                </mxCell>
                <mxCell id="ySkBI7191X18KGP2Q0aH-69" value="delete dead animals" style="text;html=1;align=center;verticalAlign=middle;resizable=0;points=[];autosize=1;strokeColor=none;fillColor=none;" parent="1" vertex="1">
                    <mxGeometry x="481" y="1576" width="117" height="18" as="geometry"/>
                </mxCell>
                <mxCell id="ySkBI7191X18KGP2Q0aH-71" value="" style="endArrow=classic;html=1;rounded=0;exitX=1;exitY=0;exitDx=0;exitDy=0;entryX=0;entryY=0;entryDx=0;entryDy=0;" parent="1" edge="1" target="38" source="37">
                    <mxGeometry width="50" height="50" relative="1" as="geometry">
                        <mxPoint x="1279.5" y="1598" as="sourcePoint"/>
                        <mxPoint x="1584" y="1598" as="targetPoint"/>
                    </mxGeometry>
                </mxCell>
                <mxCell id="ySkBI7191X18KGP2Q0aH-72" value="add new meat" style="text;html=1;align=center;verticalAlign=middle;resizable=0;points=[];autosize=1;strokeColor=none;fillColor=none;" parent="1" vertex="1">
                    <mxGeometry x="1400" y="1576" width="85" height="18" as="geometry"/>
                </mxCell>
                <mxCell id="ySkBI7191X18KGP2Q0aH-73" value="" style="endArrow=classic;html=1;rounded=0;entryX=0;entryY=0;entryDx=0;entryDy=0;" parent="1" edge="1" target="25">
                    <mxGeometry width="50" height="50" relative="1" as="geometry">
                        <mxPoint x="392" y="923" as="sourcePoint"/>
                        <mxPoint x="977" y="923" as="targetPoint"/>
                    </mxGeometry>
                </mxCell>
                <mxCell id="ySkBI7191X18KGP2Q0aH-74" value="animal move" style="text;html=1;align=center;verticalAlign=middle;resizable=0;points=[];autosize=1;strokeColor=none;fillColor=none;" parent="1" vertex="1">
                    <mxGeometry x="508" y="905" width="78" height="18" as="geometry"/>
                </mxCell>
                <mxCell id="ySkBI7191X18KGP2Q0aH-75" value="" style="endArrow=classic;html=1;rounded=0;" parent="1" edge="1">
                    <mxGeometry width="50" height="50" relative="1" as="geometry">
                        <mxPoint x="972" y="966" as="sourcePoint"/>
                        <mxPoint x="411" y="966" as="targetPoint"/>
                    </mxGeometry>
                </mxCell>
                <mxCell id="ySkBI7191X18KGP2Q0aH-76" value="return a new position" style="text;html=1;align=center;verticalAlign=middle;resizable=0;points=[];autosize=1;strokeColor=none;fillColor=none;" parent="1" vertex="1">
                    <mxGeometry x="501" y="948" width="121" height="18" as="geometry"/>
                </mxCell>
                <mxCell id="ySkBI7191X18KGP2Q0aH-57" value="alt" style="shape=umlFrame;whiteSpace=wrap;html=1;" parent="1" vertex="1">
                    <mxGeometry x="313" y="1092" width="306" height="123" as="geometry"/>
                </mxCell>
                <mxCell id="ySkBI7191X18KGP2Q0aH-78" value="alt" style="shape=umlFrame;whiteSpace=wrap;html=1;" parent="1" vertex="1">
                    <mxGeometry x="313" y="1393" width="1022" height="107" as="geometry"/>
                </mxCell>
                <mxCell id="ySkBI7191X18KGP2Q0aH-80" value="[reproduct partner in zone contact]" style="text;html=1;strokeColor=none;fillColor=none;align=center;verticalAlign=middle;whiteSpace=wrap;rounded=0;labelBackgroundColor=#FFFFFF;" parent="1" vertex="1">
                    <mxGeometry x="447.75" y="1400" width="192.5" height="25" as="geometry"/>
                </mxCell>
                <mxCell id="ySkBI7191X18KGP2Q0aH-81" value="loop" style="shape=umlFrame;whiteSpace=wrap;html=1;" parent="1" vertex="1">
                    <mxGeometry x="291" y="905" width="1123" height="625" as="geometry"/>
                </mxCell>
                <mxCell id="ySkBI7191X18KGP2Q0aH-83" value="loop" style="shape=umlFrame;whiteSpace=wrap;html=1;" parent="1" vertex="1">
                    <mxGeometry x="290" y="1547" width="1351" height="88" as="geometry"/>
                </mxCell>
                <mxCell id="ySkBI7191X18KGP2Q0aH-85" value="" style="endArrow=classic;html=1;rounded=0;entryX=0;entryY=0;entryDx=0;entryDy=0;" parent="1" edge="1" target="42">
                    <mxGeometry width="50" height="50" relative="1" as="geometry">
                        <mxPoint x="400" y="1764" as="sourcePoint"/>
                        <mxPoint x="1588" y="1764" as="targetPoint"/>
                    </mxGeometry>
                </mxCell>
                <mxCell id="ySkBI7191X18KGP2Q0aH-86" value="draw sprit objet" style="text;html=1;align=center;verticalAlign=middle;resizable=0;points=[];autosize=1;strokeColor=none;fillColor=none;" parent="1" vertex="1">
                    <mxGeometry x="482" y="1746" width="91" height="18" as="geometry"/>
                </mxCell>
                <mxCell id="ySkBI7191X18KGP2Q0aH-87" value="" style="endArrow=classic;html=1;rounded=0;entryX=0;entryY=0;entryDx=0;entryDy=0;" parent="1" edge="1" target="44">
                    <mxGeometry width="50" height="50" relative="1" as="geometry">
                        <mxPoint x="400" y="1840" as="sourcePoint"/>
                        <mxPoint x="1590" y="1840" as="targetPoint"/>
                    </mxGeometry>
                </mxCell>
                <mxCell id="ySkBI7191X18KGP2Q0aH-88" value="update objet energy" style="text;html=1;align=center;verticalAlign=middle;resizable=0;points=[];autosize=1;strokeColor=none;fillColor=none;" parent="1" vertex="1">
                    <mxGeometry x="469.5" y="1820" width="116" height="18" as="geometry"/>
                </mxCell>
                <mxCell id="ySkBI7191X18KGP2Q0aH-90" value="" style="endArrow=classic;html=1;rounded=0;entryX=0.762;entryY=-0.154;entryDx=0;entryDy=0;entryPerimeter=0;" parent="1" edge="1" target="3">
                    <mxGeometry width="50" height="50" relative="1" as="geometry">
                        <mxPoint x="399" y="1943.5" as="sourcePoint"/>
                        <mxPoint x="399" y="1992" as="targetPoint"/>
                        <Array as="points">
                            <mxPoint x="477" y="1943.5"/>
                            <mxPoint x="477" y="1991.5"/>
                        </Array>
                    </mxGeometry>
                </mxCell>
                <mxCell id="ySkBI7191X18KGP2Q0aH-91" value="add in tokill" style="text;html=1;align=center;verticalAlign=middle;resizable=0;points=[];autosize=1;strokeColor=none;fillColor=none;" parent="1" vertex="1">
                    <mxGeometry x="478" y="1959" width="70" height="18" as="geometry"/>
                </mxCell>
                <mxCell id="ySkBI7191X18KGP2Q0aH-92" value="[objet energy=0]" style="text;html=1;align=center;verticalAlign=middle;resizable=0;points=[];autosize=1;strokeColor=none;fillColor=none;" parent="1" vertex="1">
                    <mxGeometry x="481" y="1889" width="97" height="18" as="geometry"/>
                </mxCell>
                <mxCell id="ySkBI7191X18KGP2Q0aH-93" value="alt" style="shape=umlFrame;whiteSpace=wrap;html=1;" parent="1" vertex="1">
                    <mxGeometry x="316" y="1886" width="275" height="123" as="geometry"/>
                </mxCell>
                <mxCell id="ySkBI7191X18KGP2Q0aH-104" value="" style="endArrow=classic;html=1;rounded=0;" parent="1" edge="1">
                    <mxGeometry width="50" height="50" relative="1" as="geometry">
                        <mxPoint x="399" y="2121.57" as="sourcePoint"/>
                        <mxPoint x="1578" y="2122" as="targetPoint"/>
                    </mxGeometry>
                </mxCell>
                <mxCell id="ySkBI7191X18KGP2Q0aH-105" value="delete no energy objets" style="text;html=1;align=center;verticalAlign=middle;resizable=0;points=[];autosize=1;strokeColor=none;fillColor=none;" parent="1" vertex="1">
                    <mxGeometry x="535" y="2102" width="135" height="18" as="geometry"/>
                </mxCell>
                <mxCell id="ySkBI7191X18KGP2Q0aH-106" value="loop" style="shape=umlFrame;whiteSpace=wrap;html=1;" parent="1" vertex="1">
                    <mxGeometry x="290" y="2053" width="1516" height="180" as="geometry"/>
                </mxCell>
                <mxCell id="ySkBI7191X18KGP2Q0aH-107" value="" style="endArrow=classic;html=1;rounded=0;exitX=1;exitY=0;exitDx=0;exitDy=0;entryX=1.136;entryY=0.84;entryDx=0;entryDy=0;entryPerimeter=0;" parent="1" edge="1" target="46" source="46">
                    <mxGeometry width="50" height="50" relative="1" as="geometry">
                        <mxPoint x="1585" y="2120" as="sourcePoint"/>
                        <mxPoint x="1585" y="2179" as="targetPoint"/>
                        <Array as="points">
                            <mxPoint x="1744" y="2122"/>
                            <mxPoint x="1744" y="2179"/>
                        </Array>
                    </mxGeometry>
                </mxCell>
                <mxCell id="ySkBI7191X18KGP2Q0aH-108" value="meat replace by waste" style="text;html=1;align=center;verticalAlign=middle;resizable=0;points=[];autosize=1;strokeColor=none;fillColor=none;" parent="1" vertex="1">
                    <mxGeometry x="1594" y="2165" width="130" height="18" as="geometry"/>
                </mxCell>
                <mxCell id="ySkBI7191X18KGP2Q0aH-109" value="alt" style="shape=umlFrame;whiteSpace=wrap;html=1;" parent="1" vertex="1">
                    <mxGeometry x="1521" y="2072" width="268.25" height="136" as="geometry"/>
                </mxCell>
                <mxCell id="ySkBI7191X18KGP2Q0aH-111" value="&lt;font color=&quot;#000000&quot; style=&quot;background-color: rgb(255 , 255 , 255)&quot;&gt;[objet is a meat]&lt;/font&gt;" style="text;html=1;strokeColor=none;fillColor=none;align=center;verticalAlign=middle;whiteSpace=wrap;rounded=0;labelBackgroundColor=#FFFFFF;" parent="1" vertex="1">
                    <mxGeometry x="1601" y="2065" width="116" height="44" as="geometry"/>
                </mxCell>
                <mxCell id="ySkBI7191X18KGP2Q0aH-113" value="loop" style="shape=umlFrame;whiteSpace=wrap;html=1;" parent="1" vertex="1">
                    <mxGeometry x="291" y="1728" width="1415" height="305" as="geometry"/>
                </mxCell>
                <mxCell id="ySkBI7191X18KGP2Q0aH-114" value="loop" style="shape=umlFrame;whiteSpace=wrap;html=1;" parent="1" vertex="1">
                    <mxGeometry x="247" y="134" width="1656" height="2198" as="geometry"/>
                </mxCell>
                <mxCell id="3" value="" style="rounded=0;whiteSpace=wrap;html=1;rotation=90;" vertex="1" parent="1">
                    <mxGeometry x="-767" y="1371" width="2329" height="22" as="geometry"/>
                </mxCell>
                <mxCell id="5" value="" style="endArrow=none;dashed=1;html=1;dashPattern=1 3;strokeWidth=2;rounded=0;" edge="1" parent="1" target="3">
                    <mxGeometry width="50" height="50" relative="1" as="geometry">
                        <mxPoint x="401" y="2531" as="sourcePoint"/>
                        <mxPoint x="396" y="179" as="targetPoint"/>
                    </mxGeometry>
                </mxCell>
                <mxCell id="7" value="" style="rounded=0;whiteSpace=wrap;html=1;shadow=0;sketch=0;fillColor=#2a2a2a;" vertex="1" parent="1">
                    <mxGeometry x="702" y="239" width="13" height="54" as="geometry"/>
                </mxCell>
                <mxCell id="9" value="" style="rounded=0;whiteSpace=wrap;html=1;shadow=0;sketch=0;fillColor=#2a2a2a;" vertex="1" parent="1">
                    <mxGeometry x="702" y="569" width="13" height="33" as="geometry"/>
                </mxCell>
                <mxCell id="14" value="" style="rounded=0;whiteSpace=wrap;html=1;shadow=0;sketch=0;fillColor=#2a2a2a;" vertex="1" parent="1">
                    <mxGeometry x="1273.75" y="567" width="12.5" height="33" as="geometry"/>
                </mxCell>
                <mxCell id="15" value="" style="rounded=0;whiteSpace=wrap;html=1;shadow=0;sketch=0;fillColor=#2a2a2a;" vertex="1" parent="1">
                    <mxGeometry x="702" y="644" width="13" height="33" as="geometry"/>
                </mxCell>
                <mxCell id="17" value="" style="rounded=0;whiteSpace=wrap;html=1;shadow=0;sketch=0;fillColor=#2a2a2a;" vertex="1" parent="1">
                    <mxGeometry x="1273.25" y="644" width="13" height="33" as="geometry"/>
                </mxCell>
                <mxCell id="18" value="" style="endArrow=none;dashed=1;html=1;dashPattern=1 3;strokeWidth=2;rounded=0;startArrow=none;" edge="1" parent="1" source="28" target="17">
                    <mxGeometry width="50" height="50" relative="1" as="geometry">
                        <mxPoint x="1279" y="2528" as="sourcePoint"/>
                        <mxPoint x="1279.29" y="176" as="targetPoint"/>
                    </mxGeometry>
                </mxCell>
                <mxCell id="19" value="" style="rounded=0;whiteSpace=wrap;html=1;shadow=0;sketch=0;fillColor=#2a2a2a;" vertex="1" parent="1">
                    <mxGeometry x="1273.75" y="313" width="13" height="33" as="geometry"/>
                </mxCell>
                <mxCell id="21" value="" style="rounded=0;whiteSpace=wrap;html=1;shadow=0;sketch=0;fillColor=#2a2a2a;" vertex="1" parent="1">
                    <mxGeometry x="1271" y="775" width="13" height="33" as="geometry"/>
                </mxCell>
                <mxCell id="23" value="" style="rounded=0;whiteSpace=wrap;html=1;shadow=0;sketch=0;fillColor=#2a2a2a;" vertex="1" parent="1">
                    <mxGeometry x="1576" y="775" width="13" height="33" as="geometry"/>
                </mxCell>
                <mxCell id="24" value="" style="endArrow=none;dashed=1;html=1;dashPattern=1 3;strokeWidth=2;rounded=0;startArrow=none;" edge="1" parent="1" source="38" target="23">
                    <mxGeometry width="50" height="50" relative="1" as="geometry">
                        <mxPoint x="1586" y="2528" as="sourcePoint"/>
                        <mxPoint x="1585.7200000000003" y="177" as="targetPoint"/>
                    </mxGeometry>
                </mxCell>
                <mxCell id="25" value="" style="rounded=0;whiteSpace=wrap;html=1;shadow=0;sketch=0;fillColor=#2a2a2a;" vertex="1" parent="1">
                    <mxGeometry x="972.5" y="923" width="13" height="33" as="geometry"/>
                </mxCell>
                <mxCell id="27" value="" style="rounded=0;whiteSpace=wrap;html=1;shadow=0;sketch=0;fillColor=#2a2a2a;" vertex="1" parent="1">
                    <mxGeometry x="971" y="1018" width="13" height="33" as="geometry"/>
                </mxCell>
                <mxCell id="28" value="" style="rounded=0;whiteSpace=wrap;html=1;shadow=0;sketch=0;fillColor=#2a2a2a;" vertex="1" parent="1">
                    <mxGeometry x="1273.75" y="1069" width="13" height="33" as="geometry"/>
                </mxCell>
                <mxCell id="29" value="" style="endArrow=none;dashed=1;html=1;dashPattern=1 3;strokeWidth=2;rounded=0;startArrow=none;" edge="1" parent="1" source="31" target="28">
                    <mxGeometry width="50" height="50" relative="1" as="geometry">
                        <mxPoint x="1279" y="2528" as="sourcePoint"/>
                        <mxPoint x="1279.743373493976" y="677" as="targetPoint"/>
                    </mxGeometry>
                </mxCell>
                <mxCell id="30" value="" style="rounded=0;whiteSpace=wrap;html=1;shadow=0;sketch=0;fillColor=#2a2a2a;" vertex="1" parent="1">
                    <mxGeometry x="972.5" y="1302" width="13" height="33" as="geometry"/>
                </mxCell>
                <mxCell id="31" value="" style="rounded=0;whiteSpace=wrap;html=1;shadow=0;sketch=0;fillColor=#2a2a2a;" vertex="1" parent="1">
                    <mxGeometry x="1273.25" y="1302" width="13" height="33" as="geometry"/>
                </mxCell>
                <mxCell id="32" value="" style="endArrow=none;dashed=1;html=1;dashPattern=1 3;strokeWidth=2;rounded=0;startArrow=none;" edge="1" parent="1" source="34" target="31">
                    <mxGeometry width="50" height="50" relative="1" as="geometry">
                        <mxPoint x="1279" y="2528" as="sourcePoint"/>
                        <mxPoint x="1280.2357019064125" y="1102" as="targetPoint"/>
                    </mxGeometry>
                </mxCell>
                <mxCell id="33" value="" style="rounded=0;whiteSpace=wrap;html=1;shadow=0;sketch=0;fillColor=#2a2a2a;" vertex="1" parent="1">
                    <mxGeometry x="971" y="1450" width="13" height="33" as="geometry"/>
                </mxCell>
                <mxCell id="34" value="" style="rounded=0;whiteSpace=wrap;html=1;shadow=0;sketch=0;fillColor=#2a2a2a;" vertex="1" parent="1">
                    <mxGeometry x="1271" y="1452" width="13" height="33" as="geometry"/>
                </mxCell>
                <mxCell id="35" value="" style="endArrow=none;dashed=1;html=1;dashPattern=1 3;strokeWidth=2;rounded=0;" edge="1" parent="1" target="34">
                    <mxGeometry width="50" height="50" relative="1" as="geometry">
                        <mxPoint x="1279" y="2528" as="sourcePoint"/>
                        <mxPoint x="1279.7397684993803" y="1335" as="targetPoint"/>
                    </mxGeometry>
                </mxCell>
                <mxCell id="37" value="" style="rounded=0;whiteSpace=wrap;html=1;shadow=0;sketch=0;fillColor=#2a2a2a;" vertex="1" parent="1">
                    <mxGeometry x="1271" y="1596" width="13" height="33" as="geometry"/>
                </mxCell>
                <mxCell id="38" value="" style="rounded=0;whiteSpace=wrap;html=1;shadow=0;sketch=0;fillColor=#2a2a2a;" vertex="1" parent="1">
                    <mxGeometry x="1581" y="1596" width="13" height="33" as="geometry"/>
                </mxCell>
                <mxCell id="40" value="" style="endArrow=none;dashed=1;html=1;dashPattern=1 3;strokeWidth=2;rounded=0;startArrow=none;" edge="1" parent="1" source="42" target="38">
                    <mxGeometry width="50" height="50" relative="1" as="geometry">
                        <mxPoint x="1586" y="2528" as="sourcePoint"/>
                        <mxPoint x="1587.4861538461541" y="757" as="targetPoint"/>
                    </mxGeometry>
                </mxCell>
                <mxCell id="42" value="" style="rounded=0;whiteSpace=wrap;html=1;shadow=0;sketch=0;fillColor=#2a2a2a;" vertex="1" parent="1">
                    <mxGeometry x="1583" y="1764" width="13" height="33" as="geometry"/>
                </mxCell>
                <mxCell id="43" value="" style="endArrow=none;dashed=1;html=1;dashPattern=1 3;strokeWidth=2;rounded=0;startArrow=none;" edge="1" parent="1" source="44" target="42">
                    <mxGeometry width="50" height="50" relative="1" as="geometry">
                        <mxPoint x="1586" y="2528" as="sourcePoint"/>
                        <mxPoint x="1587.472965592572" y="1629" as="targetPoint"/>
                    </mxGeometry>
                </mxCell>
                <mxCell id="44" value="" style="rounded=0;whiteSpace=wrap;html=1;shadow=0;sketch=0;fillColor=#2a2a2a;" vertex="1" parent="1">
                    <mxGeometry x="1583" y="1840" width="13" height="33" as="geometry"/>
                </mxCell>
                <mxCell id="45" value="" style="endArrow=none;dashed=1;html=1;dashPattern=1 3;strokeWidth=2;rounded=0;" edge="1" parent="1" target="44">
                    <mxGeometry width="50" height="50" relative="1" as="geometry">
                        <mxPoint x="1586" y="2528" as="sourcePoint"/>
                        <mxPoint x="1589.4227424749165" y="1797" as="targetPoint"/>
                    </mxGeometry>
                </mxCell>
                <mxCell id="46" value="" style="rounded=0;whiteSpace=wrap;html=1;shadow=0;sketch=0;fillColor=#2a2a2a;" vertex="1" parent="1">
                    <mxGeometry x="1579.5" y="2122" width="13" height="68" as="geometry"/>
                </mxCell>
                <mxCell id="47" value="&amp;lt;&amp;lt;create&amp;gt;&amp;gt;" style="text;html=1;strokeColor=none;fillColor=none;align=center;verticalAlign=middle;whiteSpace=wrap;rounded=0;shadow=0;sketch=0;" vertex="1" parent="1">
                    <mxGeometry x="493" y="412" width="40" height="20" as="geometry"/>
                </mxCell>
                <mxCell id="48" value="&amp;lt;&amp;lt;create&amp;gt;&amp;gt;" style="text;html=1;strokeColor=none;fillColor=none;align=center;verticalAlign=middle;whiteSpace=wrap;rounded=0;shadow=0;sketch=0;" vertex="1" parent="1">
                    <mxGeometry x="759" y="620" width="40" height="20" as="geometry"/>
                </mxCell>
                <mxCell id="49" value="&amp;lt;&amp;lt;destroy&amp;gt;&amp;gt;" style="text;html=1;strokeColor=none;fillColor=none;align=center;verticalAlign=middle;whiteSpace=wrap;rounded=0;shadow=0;sketch=0;" vertex="1" parent="1">
                    <mxGeometry x="437" y="756" width="40" height="20" as="geometry"/>
                </mxCell>
                <mxCell id="50" value="&amp;lt;&amp;lt;create&amp;gt;&amp;gt;" style="text;html=1;strokeColor=none;fillColor=none;align=center;verticalAlign=middle;whiteSpace=wrap;rounded=0;shadow=0;sketch=0;" vertex="1" parent="1">
                    <mxGeometry x="1329" y="760" width="40" height="20" as="geometry"/>
                </mxCell>
                <mxCell id="53" value="" style="shape=umlDestroy;whiteSpace=wrap;html=1;strokeWidth=1;shadow=0;sketch=0;fillColor=#2a2a2a;" vertex="1" parent="1">
                    <mxGeometry x="1266" y="772" width="7" height="7" as="geometry"/>
                </mxCell>
                <mxCell id="55" value="&amp;lt;&amp;lt;create&amp;gt;&amp;gt;" style="text;html=1;strokeColor=none;fillColor=none;align=center;verticalAlign=middle;whiteSpace=wrap;rounded=0;shadow=0;sketch=0;" vertex="1" parent="1">
                    <mxGeometry x="484" y="1147" width="40" height="20" as="geometry"/>
                </mxCell>
                <mxCell id="56" value="&amp;lt;&amp;lt;create&amp;gt;&amp;gt;" style="text;html=1;strokeColor=none;fillColor=none;align=center;verticalAlign=middle;whiteSpace=wrap;rounded=0;shadow=0;sketch=0;" vertex="1" parent="1">
                    <mxGeometry x="1004" y="1430" width="40" height="20" as="geometry"/>
                </mxCell>
                <mxCell id="58" value="&amp;lt;&amp;lt;destroy&amp;gt;&amp;gt;" style="text;html=1;strokeColor=none;fillColor=none;align=center;verticalAlign=middle;whiteSpace=wrap;rounded=0;shadow=0;sketch=0;" vertex="1" parent="1">
                    <mxGeometry x="425.5" y="1576" width="40" height="20" as="geometry"/>
                </mxCell>
                <mxCell id="59" value="&amp;lt;&amp;lt;create&amp;gt;&amp;gt;" style="text;html=1;strokeColor=none;fillColor=none;align=center;verticalAlign=middle;whiteSpace=wrap;rounded=0;shadow=0;sketch=0;" vertex="1" parent="1">
                    <mxGeometry x="1346" y="1576" width="40" height="20" as="geometry"/>
                </mxCell>
                <mxCell id="60" value="" style="shape=umlDestroy;whiteSpace=wrap;html=1;strokeWidth=1;shadow=0;sketch=0;fillColor=#2a2a2a;" vertex="1" parent="1">
                    <mxGeometry x="1266.75" y="1592" width="7" height="7" as="geometry"/>
                </mxCell>
                <mxCell id="61" value="&amp;lt;&amp;lt;create&amp;gt;&amp;gt;" style="text;html=1;strokeColor=none;fillColor=none;align=center;verticalAlign=middle;whiteSpace=wrap;rounded=0;shadow=0;sketch=0;" vertex="1" parent="1">
                    <mxGeometry x="489" y="1942" width="40" height="20" as="geometry"/>
                </mxCell>
                <mxCell id="62" value="&amp;lt;&amp;lt;destroy&amp;gt;&amp;gt;" style="text;html=1;strokeColor=none;fillColor=none;align=center;verticalAlign=middle;whiteSpace=wrap;rounded=0;shadow=0;sketch=0;" vertex="1" parent="1">
                    <mxGeometry x="474" y="2100" width="40" height="20" as="geometry"/>
                </mxCell>
                <mxCell id="63" value="&amp;lt;&amp;lt;create&amp;gt;&amp;gt;" style="text;html=1;strokeColor=none;fillColor=none;align=center;verticalAlign=middle;whiteSpace=wrap;rounded=0;shadow=0;sketch=0;" vertex="1" parent="1">
                    <mxGeometry x="1628" y="2150" width="40" height="20" as="geometry"/>
                </mxCell>
                <mxCell id="64" value="" style="shape=umlDestroy;whiteSpace=wrap;html=1;strokeWidth=1;shadow=0;sketch=0;fillColor=#2a2a2a;" vertex="1" parent="1">
                    <mxGeometry x="1574" y="2118" width="7" height="7" as="geometry"/>
                </mxCell>
            </root>
        </mxGraphModel>
    </diagram>
</mxfile>